<svg width="214" height="51" viewBox="0 0 214 51" fill="none" xmlns="http://www.w3.org/2000/svg">
<path d="M49.4226 6.01532C50.2198 6.01532 50.9173 6.31427 51.5152 6.91216C52.1463 7.47683 52.4619 8.19097 52.4619 9.05458V37.8528C52.4619 38.7164 52.1463 39.4472 51.5152 40.0451C50.8841 40.6098 50.1534 40.8921 49.323 40.8921C48.3929 40.8921 47.6455 40.6098 47.0809 40.0451C46.5162 39.4472 46.2339 38.7164 46.2339 37.8528V9.05458C46.2339 8.19097 46.5328 7.47683 47.1307 6.91216C47.7286 6.31427 48.4926 6.01532 49.4226 6.01532ZM71.4946 6.01532C72.4247 6.01532 73.172 6.31427 73.7367 6.91216C74.3014 7.47683 74.5837 8.19097 74.5837 9.05458V37.8528C74.5837 38.7164 74.2848 39.4472 73.6869 40.0451C73.1222 40.6098 72.3582 40.8921 71.395 40.8921C70.5978 40.8921 69.8836 40.6098 69.2525 40.0451C68.6546 39.4472 68.3557 38.7164 68.3557 37.8528V9.05458C68.3557 8.19097 68.6713 7.47683 69.3024 6.91216C69.9335 6.31427 70.6642 6.01532 71.4946 6.01532ZM49.2731 20.5141H71.4946V26.2438H49.2731V20.5141ZM92.1093 41.3903C89.2859 41.3903 86.8279 40.809 84.7353 39.6465C82.6759 38.4507 81.0816 36.8397 79.9522 34.8136C78.8561 32.7874 78.308 30.4955 78.308 27.9379C78.308 24.9484 78.9059 22.4074 80.1017 20.3148C81.3307 18.189 82.9251 16.5614 84.8848 15.4321C86.8445 14.3027 88.9205 13.738 91.1128 13.738C92.8068 13.738 94.4012 14.0868 95.8959 14.7843C97.4238 15.4819 98.7691 16.4451 99.9316 17.6741C101.094 18.8699 102.008 20.265 102.672 21.8593C103.369 23.4537 103.718 25.1477 103.718 26.9414C103.685 27.7386 103.369 28.3863 102.772 28.8845C102.174 29.3828 101.476 29.6319 100.679 29.6319H81.6462L80.1515 24.6495H98.4369L97.3408 25.646V24.3007C97.2743 23.3375 96.9256 22.4738 96.2945 21.7099C95.6966 20.9459 94.9326 20.348 94.0026 19.9162C93.1057 19.4512 92.1425 19.2187 91.1128 19.2187C90.1163 19.2187 89.1863 19.3515 88.3226 19.6173C87.459 19.883 86.7117 20.3314 86.0806 20.9625C85.4495 21.5936 84.9512 22.4406 84.5859 23.5035C84.2205 24.5664 84.0378 25.9117 84.0378 27.5393C84.0378 29.3329 84.4032 30.8609 85.1339 32.1231C85.8979 33.3521 86.8611 34.2987 88.0237 34.963C89.2195 35.5941 90.4817 35.9097 91.8103 35.9097C93.0393 35.9097 94.0192 35.81 94.7499 35.6108C95.4807 35.4115 96.062 35.1789 96.4938 34.9132C96.9588 34.6143 97.374 34.3652 97.7394 34.1659C98.3373 33.8669 98.9019 33.7174 99.4334 33.7174C100.164 33.7174 100.762 33.9666 101.227 34.4648C101.725 34.963 101.974 35.5443 101.974 36.2086C101.974 37.1055 101.509 37.9193 100.579 38.65C99.7157 39.3808 98.5033 40.0285 96.9422 40.5931C95.381 41.1246 93.7701 41.3903 92.1093 41.3903ZM128.967 13.738C129.83 13.738 130.544 14.0204 131.109 14.585C131.674 15.1497 131.956 15.8805 131.956 16.7773V37.8528C131.956 38.7164 131.674 39.4472 131.109 40.0451C130.544 40.6098 129.83 40.8921 128.967 40.8921C128.103 40.8921 127.389 40.6098 126.824 40.0451C126.259 39.4472 125.977 38.7164 125.977 37.8528V35.4115L127.073 35.8599C127.073 36.2917 126.841 36.8231 126.376 37.4542C125.911 38.0521 125.28 38.65 124.482 39.2479C123.685 39.8458 122.739 40.3606 121.642 40.7924C120.58 41.191 119.417 41.3903 118.155 41.3903C115.863 41.3903 113.787 40.809 111.927 39.6465C110.067 38.4507 108.589 36.8231 107.492 34.7637C106.43 32.6711 105.898 30.2796 105.898 27.5891C105.898 24.8654 106.43 22.4738 107.492 20.4144C108.589 18.3218 110.05 16.6943 111.877 15.5317C113.704 14.3359 115.73 13.738 117.955 13.738C119.384 13.738 120.696 13.9539 121.892 14.3857C123.087 14.8176 124.117 15.3656 124.981 16.0299C125.877 16.6943 126.558 17.3752 127.023 18.0727C127.522 18.737 127.771 19.3017 127.771 19.7667L125.977 20.4144V16.7773C125.977 15.9137 126.259 15.1995 126.824 14.6349C127.389 14.037 128.103 13.738 128.967 13.738ZM118.902 35.9097C120.364 35.9097 121.642 35.5443 122.739 34.8136C123.835 34.0828 124.682 33.0863 125.28 31.8241C125.911 30.5619 126.226 29.1502 126.226 27.5891C126.226 25.9947 125.911 24.5664 125.28 23.3042C124.682 22.042 123.835 21.0455 122.739 20.3148C121.642 19.584 120.364 19.2187 118.902 19.2187C117.474 19.2187 116.212 19.584 115.115 20.3148C114.019 21.0455 113.156 22.042 112.525 23.3042C111.927 24.5664 111.628 25.9947 111.628 27.5891C111.628 29.1502 111.927 30.5619 112.525 31.8241C113.156 33.0863 114.019 34.0828 115.115 34.8136C116.212 35.5443 117.474 35.9097 118.902 35.9097ZM139.426 40.8921C138.562 40.8921 137.848 40.6098 137.284 40.0451C136.719 39.4472 136.437 38.7164 136.437 37.8528V17.2755C136.437 16.4119 136.719 15.6978 137.284 15.1331C137.848 14.5352 138.562 14.2363 139.426 14.2363C140.29 14.2363 141.004 14.5352 141.568 15.1331C142.133 15.6978 142.415 16.4119 142.415 17.2755V21.959L142.067 18.6208C142.432 17.8236 142.897 17.1261 143.462 16.5282C144.06 15.8971 144.724 15.3822 145.455 14.9836C146.186 14.5518 146.966 14.2363 147.796 14.037C148.627 13.8377 149.457 13.738 150.288 13.738C151.284 13.738 152.115 14.0204 152.779 14.585C153.476 15.1497 153.825 15.814 153.825 16.578C153.825 17.6741 153.543 18.4713 152.978 18.9696C152.414 19.4346 151.799 19.6671 151.135 19.6671C150.504 19.6671 149.922 19.5508 149.391 19.3183C148.893 19.0858 148.311 18.9696 147.647 18.9696C147.049 18.9696 146.435 19.119 145.804 19.418C145.206 19.6837 144.641 20.1155 144.11 20.7134C143.611 21.3113 143.196 22.0586 142.864 22.9555C142.565 23.8191 142.415 24.8488 142.415 26.0446V37.8528C142.415 38.7164 142.133 39.4472 141.568 40.0451C141.004 40.6098 140.29 40.8921 139.426 40.8921ZM157.841 14.7345H169.649C170.446 14.7345 171.11 15.0002 171.642 15.5317C172.173 16.0632 172.439 16.7275 172.439 17.5247C172.439 18.2886 172.173 18.9363 171.642 19.4678C171.11 19.966 170.446 20.2152 169.649 20.2152H157.841C157.043 20.2152 156.379 19.9494 155.848 19.418C155.316 18.8865 155.051 18.2222 155.051 17.425C155.051 16.661 155.316 16.0299 155.848 15.5317C156.379 15.0002 157.043 14.7345 157.841 14.7345ZM163.172 8.50652C164.035 8.50652 164.733 8.80547 165.264 9.40335C165.829 9.96803 166.111 10.6822 166.111 11.5458V33.7174C166.111 34.1825 166.194 34.5644 166.361 34.8634C166.56 35.1623 166.809 35.3782 167.108 35.5111C167.44 35.644 167.789 35.7104 168.154 35.7104C168.553 35.7104 168.918 35.644 169.25 35.5111C169.583 35.345 169.965 35.262 170.396 35.262C170.861 35.262 171.277 35.4779 171.642 35.9097C172.041 36.3415 172.24 36.9394 172.24 37.7034C172.24 38.6334 171.725 39.3974 170.695 39.9953C169.699 40.5931 168.619 40.8921 167.457 40.8921C166.759 40.8921 165.979 40.8423 165.115 40.7426C164.285 40.6098 163.487 40.3274 162.723 39.8956C161.993 39.4306 161.378 38.7331 160.88 37.803C160.382 36.873 160.133 35.5941 160.133 33.9666V11.5458C160.133 10.6822 160.415 9.96803 160.98 9.40335C161.577 8.80547 162.308 8.50652 163.172 8.50652ZM182.413 37.8528C182.413 38.7164 182.114 39.4472 181.516 40.0451C180.951 40.6098 180.237 40.8921 179.374 40.8921C178.543 40.8921 177.846 40.6098 177.281 40.0451C176.716 39.4472 176.434 38.7164 176.434 37.8528V7.06163C176.434 6.19801 176.716 5.48387 177.281 4.9192C177.879 4.32131 178.61 4.02237 179.473 4.02237C180.337 4.02237 181.034 4.32131 181.566 4.9192C182.131 5.48387 182.413 6.19801 182.413 7.06163V37.8528ZM206.422 14.2363C207.286 14.2363 208 14.5352 208.565 15.1331C209.129 15.6978 209.412 16.4119 209.412 17.2755V38.4507C209.412 41.5066 208.83 43.9314 207.668 45.725C206.538 47.5519 205.01 48.8639 203.084 49.6611C201.157 50.4583 198.998 50.8569 196.607 50.8569C195.544 50.8569 194.415 50.7738 193.219 50.6078C192.023 50.4417 191.043 50.1926 190.279 49.8604C189.283 49.4286 188.585 48.8805 188.187 48.2162C187.821 47.5851 187.755 46.9042 187.987 46.1734C188.286 45.2102 188.768 44.5458 189.432 44.1805C190.096 43.8483 190.794 43.8151 191.525 44.0808C192.056 44.2469 192.754 44.496 193.617 44.8282C194.481 45.1936 195.477 45.3762 196.607 45.3762C198.135 45.3762 199.397 45.1603 200.393 44.7285C201.423 44.3299 202.187 43.6324 202.685 42.6359C203.217 41.6727 203.483 40.344 203.483 38.65V35.3118L204.529 36.5076C203.964 37.6037 203.25 38.5171 202.386 39.2479C201.556 39.9454 200.56 40.4769 199.397 40.8423C198.234 41.2076 196.906 41.3903 195.411 41.3903C193.651 41.3903 192.106 40.9917 190.777 40.1946C189.482 39.3642 188.469 38.2348 187.738 36.8065C187.007 35.345 186.642 33.6842 186.642 31.8241V17.2755C186.642 16.4119 186.924 15.6978 187.489 15.1331C188.054 14.5352 188.768 14.2363 189.631 14.2363C190.495 14.2363 191.209 14.5352 191.774 15.1331C192.339 15.6978 192.621 16.4119 192.621 17.2755V30.0305C192.621 32.1895 193.086 33.7174 194.016 34.6143C194.979 35.4779 196.308 35.9097 198.002 35.9097C199.164 35.9097 200.144 35.6938 200.942 35.262C201.739 34.797 202.353 34.1326 202.785 33.269C203.217 32.3722 203.433 31.2927 203.433 30.0305V17.2755C203.433 16.4119 203.715 15.6978 204.28 15.1331C204.844 14.5352 205.559 14.2363 206.422 14.2363Z" fill="#FFFEFE"/>
<g clip-path="url(#clip0_4_1571)">
<path d="M20.4954 0C16.516 0 13.29 3.30599 13.29 7.28544C13.29 11.2649 16.516 14.4908 20.4954 14.4908C24.4749 14.4908 27.7008 11.2649 27.7008 7.28544C27.7008 3.30599 24.4748 0 20.4954 0Z" fill="#FCDF50"/>
<path d="M25.8639 24.7784C22.7338 24.7784 21.6631 28.5136 21.6525 28.5511C21.6493 28.5626 21.6372 28.5677 21.6336 28.579C21.6336 28.5788 21.634 28.5788 21.634 28.5787C21.479 29.0799 21.0252 29.4272 20.4986 29.4295C20.4974 29.4295 20.4962 29.4295 20.4938 29.4295C19.9579 29.4295 19.4864 29.0718 19.3387 28.5558C19.2953 28.4009 18.2269 24.7783 15.1261 24.7783C12.749 24.7783 10.957 26.7673 10.957 29.406C10.957 32.5467 13.7892 35.6987 18.4826 39.6602C18.8832 39.9979 19.2952 40.3456 19.7177 40.7045C20.1653 41.0848 20.8234 41.0859 21.2713 40.7058C21.6934 40.3474 22.1047 40.0004 22.504 39.6625C26.0746 36.6504 30.033 32.7781 30.033 29.4059C30.033 26.7674 28.2411 24.7784 25.8639 24.7784Z" fill="#FCDF50"/>
<path d="M26.6197 14.6108C24.9625 16.028 22.8489 16.8925 20.4951 16.8925C18.1414 16.8925 16.0278 16.0279 14.3706 14.6108C7.64555 15.2833 2.48169 20.9355 2.48169 27.7807V29.4619C2.48169 33.3528 3.99482 37.0035 6.73294 39.7415C6.73294 39.7656 6.73294 39.7656 6.75696 39.7656C7.50152 40.5101 8.53429 40.9424 9.59108 40.9664C11.3471 40.9225 12.7676 39.5902 13.0015 37.8767C10.7629 35.5768 8.55535 32.6298 8.55535 29.4061C8.55535 25.3036 11.6897 22.3766 15.1151 22.3766C15.1174 22.3766 15.1192 22.377 15.1216 22.377C15.1232 22.377 15.1247 22.3766 15.1263 22.3766C17.3867 22.3766 19.2753 23.6198 20.4963 25.4386C21.7288 23.6025 23.5662 22.3766 25.864 22.3766C25.8656 22.3766 25.8671 22.377 25.8688 22.377C25.8711 22.377 25.8728 22.3766 25.8752 22.3766C29.5141 22.3766 32.435 25.4979 32.435 29.4061C32.3218 29.7102 32.9223 32.6717 27.9856 37.8444C28.2061 39.5732 29.6323 40.9222 31.3994 40.9664C32.4562 40.9424 33.4889 40.5101 34.2335 39.7656C34.2575 39.7656 34.2575 39.7656 34.2575 39.7415C36.9955 37.0035 38.5086 33.3528 38.5086 29.4619V27.7807C38.5086 20.9355 33.3447 15.2833 26.6197 14.6108Z" fill="#FCDF50"/>
</g>
<defs>
<clipPath id="clip0_4_1571">
<rect width="40.9905" height="40.9905" fill="white"/>
</clipPath>
</defs>
</svg>
